<svg width="60" height="60" viewBox="0 0 60 60" fill="none" xmlns="http://www.w3.org/2000/svg">
<path d="M59.1819 25.4998L53.203 13.5349C53.0105 13.1494 52.7439 12.8056 52.4185 12.5231C52.0932 12.2407 51.7153 12.025 51.3066 11.8886C50.8979 11.7521 50.4663 11.6975 50.0364 11.7278C49.6066 11.7582 49.187 11.8729 48.8015 12.0654L42.8108 15.0607L30.3585 11.7654C30.1233 11.7045 29.8765 11.7045 29.6413 11.7654L17.189 15.0607L11.2007 12.0654C10.8151 11.8725 10.3952 11.7575 9.96513 11.727C9.53504 11.6965 9.10316 11.751 8.69416 11.8875C8.28517 12.0239 7.90708 12.2397 7.58151 12.5224C7.25594 12.8051 6.98928 13.1491 6.79677 13.5349L0.817861 25.4998C0.428881 26.278 0.364928 27.1789 0.640066 28.0044C0.915203 28.8298 1.5069 29.5121 2.28505 29.9013L8.64833 33.0841L21.6819 42.3935C21.8232 42.4954 21.9821 42.5701 22.1507 42.6138L37.1507 46.3638C37.2649 46.3925 37.3822 46.4066 37.4999 46.406C37.8727 46.4057 38.2302 46.2573 38.4936 45.9935L51.4569 33.0302L57.7147 29.9013C58.4929 29.5121 59.0846 28.8298 59.3597 28.0044C59.6349 27.1789 59.5709 26.278 59.1819 25.4998ZM46.76 33.7404L38.3694 27.0185C38.0988 26.802 37.7578 26.6929 37.4117 26.7124C37.0657 26.7319 36.739 26.8784 36.4944 27.124C32.1233 31.5279 27.2366 30.9724 24.1218 28.9802C24.0605 28.9425 24.0088 28.8911 23.9706 28.8302C23.9324 28.7692 23.9087 28.7003 23.9015 28.6287C23.8931 28.563 23.8996 28.4964 23.9202 28.4336C23.9409 28.3707 23.9753 28.3133 24.021 28.2654L34.3194 18.281H42.2554L48.914 31.5982L46.76 33.7404ZM3.30692 27.1146C3.26816 26.9971 3.27743 26.8691 3.33271 26.7584L9.31396 14.7912C9.35327 14.7132 9.41359 14.6477 9.48814 14.6021C9.56268 14.5566 9.64847 14.5328 9.73583 14.5334C9.80823 14.5334 9.87963 14.5503 9.94442 14.5826L15.1499 17.1841L8.74677 29.9998L3.5413 27.3982C3.48513 27.3692 3.4354 27.3291 3.39513 27.2804C3.35485 27.2316 3.32484 27.1753 3.30692 27.1146ZM37.0686 43.4435L23.0999 39.9513L11.1702 31.4295L18.0093 17.7537L29.9999 14.5802L33.4686 15.499C33.2034 15.5503 32.9589 15.6782 32.7655 15.867L22.0546 26.2615C21.7068 26.6091 21.4416 27.0303 21.2785 27.4942C21.1155 27.958 21.0587 28.4526 21.1125 28.9413C21.1663 29.43 21.3292 29.9004 21.5892 30.3177C21.8492 30.735 22.1997 31.0885 22.6147 31.3521C27.3538 34.3802 33.103 33.8107 37.5679 29.9716L44.7655 35.742L37.0686 43.4435ZM56.6929 27.1146C56.6736 27.1731 56.6429 27.2272 56.6027 27.2739C56.5625 27.3205 56.5135 27.3588 56.4585 27.3865L51.253 29.9998L44.8499 17.1841L50.0554 14.5826C50.1105 14.5549 50.1706 14.5384 50.2321 14.5339C50.2936 14.5295 50.3554 14.5373 50.414 14.5568C50.4725 14.5761 50.5266 14.6067 50.5732 14.6469C50.6199 14.6872 50.6581 14.7362 50.6858 14.7912L56.6671 26.7584C56.7224 26.8691 56.7316 26.9971 56.6929 27.1146ZM30.4429 50.9646C30.3526 51.3263 30.1224 51.6374 29.8029 51.8294C29.4834 52.0215 29.1007 52.0788 28.739 51.9888L18.9585 49.5443C18.7898 49.501 18.6307 49.4263 18.4897 49.324L12.3093 44.9154C12.0056 44.6978 11.8008 44.3686 11.7399 44C11.6791 43.6315 11.7671 43.2538 11.9847 42.9502C12.2022 42.6465 12.5315 42.4417 12.9 42.3808C13.2686 42.32 13.6462 42.408 13.9499 42.6256L19.9007 46.8748L29.4186 49.2537C29.5983 49.2986 29.7673 49.3785 29.916 49.4889C30.0646 49.5993 30.19 49.7379 30.285 49.8969C30.3799 50.0559 30.4425 50.232 30.4692 50.4152C30.4959 50.5985 30.4862 50.7852 30.4405 50.9646H30.4429Z" fill="black"/>
</svg>
