<svg width="60" height="60" viewBox="0 0 60 60" fill="none" xmlns="http://www.w3.org/2000/svg">
<path d="M11.25 23.75C11.25 28.7228 13.2254 33.4919 16.7417 37.0083C20.2581 40.5246 25.0272 42.5 30 42.5C34.9728 42.5 39.7419 40.5246 43.2583 37.0083C46.7746 33.4919 48.75 28.7228 48.75 23.75C48.75 18.7772 46.7746 14.0081 43.2583 10.4917C39.7419 6.97544 34.9728 5 30 5C25.0272 5 20.2581 6.97544 16.7417 10.4917C13.2254 14.0081 11.25 18.7772 11.25 23.75Z" stroke="black" stroke-width="3" stroke-linecap="round" stroke-linejoin="round"/>
<path d="M22.5 25.4175C22.5 25.4175 24.375 25.4175 26.25 28.75C26.25 28.75 32.205 20.4175 37.5 18.75" stroke="black" stroke-width="3" stroke-linecap="round" stroke-linejoin="round"/>
<path d="M42.2074 37.5L43.8824 45.525C44.9574 50.68 45.4974 53.2575 44.3899 54.48C43.2849 55.7025 41.3649 54.6525 37.5249 52.55L31.8399 49.4375C30.9324 48.9425 30.4799 48.6925 29.9999 48.6925C29.5199 48.6925 29.0674 48.9425 28.1599 49.4375L22.4749 52.55C18.6349 54.65 16.7149 55.7025 15.6099 54.48C14.5049 53.2575 15.0424 50.68 16.1174 45.525L17.7924 37.5" stroke="black" stroke-width="3" stroke-linejoin="round"/>
</svg>
