<svg width="60" height="60" viewBox="0 0 60 60" fill="none" xmlns="http://www.w3.org/2000/svg">
<path d="M25.0004 5.625C19.7604 5.625 15.4279 9.775 15.4279 15C15.4279 20.225 19.7604 24.375 25.0004 24.375C30.2404 24.375 34.5729 20.225 34.5729 15C34.5729 9.775 30.2404 5.625 25.0004 5.625ZM19.1779 15C19.1779 11.94 21.7379 9.375 25.0004 9.375C28.2629 9.375 30.8229 11.94 30.8229 15C30.8229 18.06 28.2629 20.625 25.0004 20.625C21.7379 20.625 19.1779 18.06 19.1779 15ZM17.7179 29.65C17.8779 29.605 18.2229 29.6225 18.6779 29.915C19.9579 30.745 22.1779 31.84 25.0004 31.84C27.8229 31.84 30.0429 30.745 31.3254 29.915C31.7754 29.6225 32.1229 29.605 32.2829 29.6475C32.6413 29.7475 32.9979 29.8542 33.3529 29.9675L35.8154 30.755C36.2841 30.8898 36.7869 30.8368 37.2171 30.6071C37.6473 30.3774 37.971 29.9891 38.1197 29.5246C38.2683 29.0601 38.2302 28.556 38.0133 28.1192C37.7964 27.6824 37.4178 27.3473 36.9579 27.185L34.4979 26.395C34.0929 26.2667 33.6863 26.1458 33.2779 26.0325C31.7479 25.6125 30.2954 26.115 29.2879 26.7675C28.3629 27.3675 26.8529 28.09 25.0004 28.09C23.1504 28.09 21.6379 27.365 20.7129 26.765C19.7054 26.115 18.2529 25.6125 16.7229 26.0325C16.3146 26.1458 15.9079 26.2667 15.5029 26.395L13.0429 27.185C11.6455 27.6222 10.3692 28.3789 9.31511 29.3952C8.26105 30.4115 7.45828 31.6594 6.97045 33.04C6.78295 33.59 6.70295 34.12 6.65795 34.55L5.68545 43.7325C5.28545 46.675 6.91795 49.7025 10.1379 50.45C13.1354 51.145 17.9554 51.875 25.0004 51.875C25.4977 51.875 25.9746 51.6775 26.3263 51.3258C26.6779 50.9742 26.8754 50.4973 26.8754 50C26.8754 49.5027 26.6779 49.0258 26.3263 48.6742C25.9746 48.3225 25.4977 48.125 25.0004 48.125C18.2154 48.125 13.6804 47.425 10.9879 46.8C9.92045 46.55 9.21795 45.5425 9.40295 44.225L9.40795 44.1925L10.3854 34.9425C10.4204 34.6325 10.4604 34.4225 10.5154 34.265C10.8126 33.4351 11.2989 32.6858 11.9359 32.0766C12.573 31.4673 13.3431 31.0148 14.1854 30.755L16.6479 29.9675C17.0029 29.8542 17.3596 29.75 17.7179 29.65ZM51.3254 40.075C51.5097 39.9033 51.6574 39.6963 51.7599 39.4663C51.8624 39.2363 51.9175 38.9881 51.9219 38.7363C51.9264 38.4845 51.8801 38.2345 51.7858 38.001C51.6915 37.7675 51.5511 37.5555 51.373 37.3774C51.195 37.1994 50.9829 37.059 50.7494 36.9647C50.516 36.8704 50.2659 36.8241 50.0141 36.8285C49.7624 36.833 49.5141 36.8881 49.2841 36.9905C49.0541 37.093 48.8471 37.2408 48.6754 37.425L40.0004 46.1L36.3254 42.425C36.1538 42.2408 35.9468 42.093 35.7168 41.9905C35.4868 41.8881 35.2385 41.833 34.9868 41.8285C34.735 41.8241 34.4849 41.8704 34.2515 41.9647C34.018 42.059 33.8059 42.1994 33.6279 42.3774C33.4498 42.5555 33.3094 42.7675 33.2151 43.001C33.1208 43.2345 33.0745 43.4845 33.079 43.7363C33.0834 43.9881 33.1385 44.2363 33.241 44.4663C33.3435 44.6963 33.4912 44.9033 33.6754 45.075L40.0004 51.4L51.3254 40.075Z" fill="black"/>
</svg>
