<svg width="60" height="60" viewBox="0 0 60 60" fill="none" xmlns="http://www.w3.org/2000/svg">
<path d="M6 30.0001C6.01269 26.8135 6.65984 23.6614 7.9037 20.7276C9.14756 17.7937 10.9632 15.137 13.2447 12.9124C15.5263 10.6877 18.228 8.93966 21.1922 7.77023C24.1565 6.6008 27.324 6.0334 30.5099 6.10112C33.6958 6.16885 36.8363 6.87035 39.7482 8.16469C42.6601 9.45903 45.2851 11.3203 47.47 13.6399C49.6549 15.9595 51.356 18.691 52.4741 21.675C53.5921 24.6591 54.1047 27.8359 53.982 31.0201C52.9968 30.7509 52.0022 30.5178 51 30.3211V30.0031C51.0043 27.028 50.3745 24.086 49.1527 21.3734C47.9308 18.6607 46.1449 16.2395 43.914 14.2711L43.707 14.4931C43.104 15.1471 42.267 16.0411 41.343 17.0011C39.537 18.8791 37.29 21.1201 35.778 22.2601C35.868 22.4581 36.078 22.7881 36.504 23.3371L36.879 23.8111C37.827 25.0021 39.198 26.7271 39.753 28.8601C39.897 29.4141 40.007 29.9241 40.083 30.3901C39.063 30.6141 38.096 30.9001 37.182 31.2481C37.1023 30.6984 36.9921 30.1536 36.852 29.6161C36.468 28.1431 35.532 26.9521 34.56 25.7161L34.131 25.1731C33.651 24.5551 33.045 23.7391 32.823 22.8631C32.677 22.3216 32.7032 21.7481 32.898 21.2221C33.114 20.6521 33.507 20.2141 33.954 19.8781C35.238 18.9181 37.335 16.8391 39.183 14.9221C40.089 13.9801 40.911 13.1011 41.505 12.4561L41.523 12.4381C37.8843 10.0457 33.5895 8.84905 29.238 9.01512C29.589 9.68112 29.994 10.5271 30.354 11.4841C31.197 13.7221 31.935 16.9351 30.609 19.7581C29.397 22.3381 27.318 23.0101 25.713 23.4241L25.422 23.4991C23.904 23.8891 23.157 24.0811 22.632 24.8791C22.122 25.6501 22.248 26.6011 22.743 28.2181L22.86 28.5901C23.058 29.2231 23.289 29.9611 23.409 30.6541C23.559 31.5121 23.592 32.5621 23.07 33.5641C22.6181 34.4826 21.8957 35.2406 21 35.7361C20.2976 36.0919 19.5415 36.3301 18.762 36.4411L18.498 36.4861C17.274 36.7021 16.563 36.8251 15.897 37.5391C15.363 38.1091 15.057 39.0631 14.886 40.3621C14.8197 40.8946 14.7677 41.4288 14.73 41.9641L14.706 42.2491C14.664 42.8584 14.5849 43.4645 14.469 44.0641L14.457 44.1241C17.5203 47.4968 21.5973 49.7817 26.073 50.6341C25.517 51.5221 25.003 52.4361 24.531 53.3761C19.2578 52.142 14.557 49.1607 11.1927 44.9168C7.82837 40.6728 5.99832 35.4158 6 30.0001ZM26.394 10.0621C26.267 9.83226 26.135 9.6052 25.998 9.38112C22.7083 10.0208 19.6193 11.4383 16.9891 13.5151C14.3588 15.592 12.2635 18.2679 10.8782 21.3195C9.49289 24.3711 8.85772 27.7099 9.02574 31.057C9.19375 34.4042 10.1601 37.6626 11.844 40.5601C11.864 40.3641 11.887 40.1661 11.913 39.9661C12.099 38.5651 12.492 36.7891 13.704 35.4931C15.09 34.0081 16.779 33.7291 17.913 33.5431L18.237 33.4861C18.846 33.3781 19.245 33.2761 19.566 33.1021C19.9348 32.8861 20.2289 32.5627 20.409 32.1751C20.496 32.0131 20.553 31.7341 20.454 31.1671C20.3464 30.6217 20.2011 30.0844 20.019 29.5591L19.875 29.1001C19.419 27.6091 18.753 25.3141 20.13 23.2261C21.33 21.4051 23.247 20.9401 24.561 20.6191L24.963 20.5201C26.364 20.1601 27.279 19.7941 27.894 18.4801C28.677 16.8121 28.323 14.6041 27.546 12.5401C27.2253 11.6861 26.8402 10.8577 26.394 10.0621ZM56.775 35.2111C56.6406 34.9938 56.453 34.8145 56.2298 34.69C56.0067 34.5656 55.7555 34.5002 55.5 34.5001H55.476L55.398 34.4881L55.125 34.4371C54.824 34.3668 54.5249 34.2888 54.228 34.2031L53.943 34.1221C53.1081 33.8813 52.2668 33.6632 51.42 33.4681C48.5173 32.8001 45.52 32.6457 42.564 33.0121C38.958 33.4621 36.201 34.6831 34.32 36.4381C32.43 38.2021 31.5 40.4461 31.5 42.7381C31.502 43.2861 31.54 43.8061 31.614 44.2981C34.764 41.5471 38.649 39.3241 42.942 37.6081C43.1257 37.53 43.3231 37.4894 43.5227 37.4885C43.7223 37.4877 43.9201 37.5267 44.1044 37.6033C44.2888 37.6799 44.456 37.7925 44.5962 37.9345C44.7365 38.0765 44.847 38.2451 44.9212 38.4304C44.9955 38.6157 45.0321 38.8139 45.0287 39.0135C45.0254 39.2131 44.9823 39.41 44.9019 39.5927C44.8215 39.7754 44.7054 39.9402 44.5605 40.0775C44.4156 40.2147 44.2448 40.3217 44.058 40.3921C41.7672 41.2996 39.5607 42.4068 37.464 43.7011C32.508 46.5931 29.421 50.3071 27.159 54.8311C26.9955 55.185 26.9762 55.5886 27.1052 55.9564C27.2342 56.3243 27.5013 56.6275 27.8499 56.8018C28.1986 56.9761 28.6014 57.0079 28.973 56.8903C29.3447 56.7728 29.656 56.5152 29.841 56.1721C30.993 53.8711 32.37 51.8041 34.185 49.9681C34.245 50.0801 34.315 50.2031 34.395 50.3371C34.8319 51.0761 35.3469 51.766 35.931 52.3951C37.326 53.8981 39.573 55.5001 42.75 55.5001C44.706 55.5001 46.332 54.9991 47.664 54.1321C48.984 53.2741 49.938 52.1071 50.652 50.8801C51.759 48.9901 52.389 46.7401 52.857 45.0721C52.975 44.6501 53.084 44.2731 53.184 43.9411C53.6811 42.3909 54.345 40.8991 55.164 39.4921C55.518 38.8711 55.851 38.3311 56.136 37.8661L56.187 37.7881C56.436 37.3831 56.688 36.9781 56.841 36.6691C56.955 36.4406 57.0088 36.1867 56.9973 35.9316C56.9857 35.6764 56.9092 35.4284 56.775 35.2111Z" fill="black"/>
</svg>
