<svg width="512" height="512" viewBox="0 0 512 512" fill="none" xmlns="http://www.w3.org/2000/svg">
<g clip-path="url(#clip0_285_1037)">
<path d="M256 512C397.385 512 512 397.385 512 256C512 114.615 397.385 0 256 0C114.615 0 0 114.615 0 256C0 397.385 114.615 512 256 512Z" fill="white"/>
<path d="M324.204 381.577H244.335C252.339 391.833 255.839 402.601 252.669 414.906C250.84 422.567 246.375 429.34 240.055 434.041C226.971 443.784 206.972 442.429 195.318 431.17C181.594 417.937 181.327 400.904 194.763 381.15C186.058 377.102 178.88 370.369 174.284 361.941C169.406 352.912 167.379 343.211 171.317 333.692C177.304 319.199 175.586 305.347 171.818 290.684C159.759 243.396 148.521 195.874 136.953 148.415C134.669 139.024 128.511 134.115 119.035 134.094C103.422 134.094 87.8191 134.094 72.2059 134.03C65.6213 133.976 60.4667 130.166 58.9726 124.777C58.181 122.059 58.3037 119.157 59.3216 116.515C60.3396 113.874 62.1967 111.64 64.6075 110.156C66.8581 108.962 69.3701 108.346 71.9178 108.363C88.1285 108.214 104.371 108.876 120.539 108.139C140.603 107.232 157.155 122.386 161.445 140.155C162.897 146.164 164.828 152.076 165.863 158.138C166.6 162.406 168.499 163.57 172.651 163.548C204.464 163.388 236.288 163.442 268.101 163.452C270.385 163.452 272.669 163.719 276.81 163.986C272.797 169.108 269.499 172.705 266.917 176.792C260.994 186.077 253.288 189.193 241.965 188.532C221.027 187.347 199.96 188.169 179.001 188.169C177.261 188.169 175.532 188.329 173.184 188.446C182.234 225.958 191.135 262.894 200.163 300.331H247.654C244.633 308.634 242.19 316.158 239.041 323.372C238.39 324.877 235.167 325.987 233.097 326.04C223.097 326.318 213.076 325.966 203.087 326.35C201.22 326.424 198.819 328.484 197.751 330.234C196.321 332.753 195.83 335.869 195.179 338.772C192.607 350.212 198.306 357.619 210.12 357.704C233.737 357.875 257.344 357.789 280.961 357.779H371.001C380.051 357.779 384.522 360.457 385.856 366.605C387.115 372.431 383.658 377.522 376.08 381.033C375.75 381.182 375.558 381.599 375.301 381.898C387.457 405.579 385.973 421.608 370.563 433.71C357.991 443.571 338.632 442.696 326.36 431.725C312.678 419.548 311.814 402.142 324.204 381.577ZM337.832 406.39C337.832 413.241 342.645 418.129 349.368 418.129C350.967 418.13 352.549 417.81 354.021 417.187C355.494 416.565 356.826 415.654 357.94 414.508C359.053 413.361 359.926 412.003 360.505 410.513C361.084 409.023 361.358 407.432 361.31 405.835C361.236 399.314 356.092 394.544 349.219 394.619C342.346 394.693 337.8 399.272 337.832 406.39ZM230.525 406.39C230.525 399.485 225.829 394.651 219.021 394.651C217.472 394.603 215.93 394.868 214.487 395.43C213.043 395.992 211.728 396.84 210.619 397.922C209.51 399.003 208.631 400.298 208.034 401.727C207.436 403.156 207.133 404.691 207.143 406.24C207.174 409.368 208.413 412.362 210.601 414.598C212.789 416.833 215.756 418.137 218.882 418.236C220.433 418.252 221.971 417.955 223.404 417.363C224.838 416.771 226.137 415.896 227.224 414.79C228.311 413.684 229.164 412.37 229.731 410.926C230.298 409.483 230.568 407.94 230.525 406.39Z" fill="#0D6EFD"/>
<path d="M278.763 252.926C265.209 252.926 252.424 253.044 239.65 252.798C237.398 252.798 233.844 251.656 233.247 250.152C232.596 248.391 234.015 245.221 235.466 243.396C263.057 208.606 290.726 173.886 318.473 139.237C320.095 137.199 321.472 134.766 323.542 133.368C325.389 132.119 328.633 130.977 330.159 131.799C331.685 132.621 332.646 136.303 332.091 138.202C327.619 153.495 322.657 168.639 317.982 183.868C314.781 194.294 311.824 204.796 308.377 216.449H333.04C336.648 216.449 340.297 216.108 343.83 216.588C346.135 216.898 349.102 217.869 350.233 219.566C351.012 220.75 349.678 224.059 348.387 225.734C340.105 236.513 331.578 247.078 323.126 257.75L269.403 325.389C269.03 325.859 268.699 326.371 268.336 326.809C266.084 329.338 263.512 333.137 260.129 330.362C258.422 328.954 258.262 324.194 259.062 321.419C265.166 299.958 271.698 278.614 278.08 257.27C278.388 255.836 278.616 254.386 278.763 252.926Z" fill="#0D6EFD"/>
<path d="M405.697 186.931H335.262C338.175 179.129 340.513 172.289 343.394 165.693C343.928 164.466 346.67 163.612 348.399 163.559C368.815 163.431 389.23 163.303 409.635 163.559C424.672 163.751 434.981 177.817 431.321 192.896C422.911 227.538 414.409 262.158 405.814 296.756C401.386 314.6 386.754 326.051 368.324 326.158C345.905 326.286 323.494 326.286 301.09 326.158C298.956 326.158 296.768 324.888 294.602 324.205C295.498 322.134 296.245 319.936 297.312 317.994C304.996 303.693 316.351 297.791 332.967 300.161C343.757 301.697 354.941 300.481 365.955 300.449C373.937 300.449 379.881 296.18 381.781 288.496C389.835 256.224 397.796 223.931 405.665 191.616C405.975 190.346 405.697 188.969 405.697 186.931Z" fill="#0D6EFD"/>
</g>
<defs>
<clipPath id="clip0_285_1037">
<rect width="512" height="512" fill="white"/>
</clipPath>
</defs>
</svg>
