<svg width="736" height="210" viewBox="0 0 736 210" fill="none" xmlns="http://www.w3.org/2000/svg">
<g clip-path="url(#clip0_293_1036)">
<path d="M167.43 172.3H117.11C122.11 178.76 124.36 185.54 122.36 193.3C121.208 198.126 118.398 202.395 114.42 205.36C106.17 211.5 93.5898 210.64 86.2298 203.54C77.5798 195.21 77.4098 184.47 85.8798 172.03C80.3895 169.477 75.8641 165.228 72.9698 159.91C69.8998 154.23 68.6198 148.11 71.0998 142.12C74.8698 132.98 73.7698 124.25 71.4198 115.02C63.8198 85.2099 56.7398 55.2799 49.4198 25.3999C47.9798 19.4899 44.0998 16.3999 38.1298 16.3999C28.2898 16.3999 18.4598 16.3998 8.61977 16.3498C4.46977 16.3498 1.19978 13.9199 0.279776 10.5299C-0.220739 8.81787 -0.144355 6.98879 0.497153 5.32449C1.13866 3.66018 2.30969 2.253 3.82978 1.31985C5.24885 0.565319 6.83259 0.173695 8.43978 0.179863C18.6498 0.0898631 28.8898 0.509848 39.0798 0.0398484C51.7198 -0.530152 62.1498 9.03986 64.8498 20.2399C65.7698 24.0299 66.9798 27.7499 67.6398 31.5799C68.0998 34.2899 69.2998 34.9999 71.9198 34.9899C91.9198 34.8899 112.01 34.9199 132.06 34.9299C133.5 34.9299 134.94 35.0998 137.55 35.2598C135.02 38.4898 132.94 40.7599 131.31 43.3099C127.58 49.1599 122.72 51.1199 115.59 50.7199C102.39 49.9699 89.1298 50.4899 75.8898 50.4899C74.7898 50.4899 73.6998 50.5899 72.2198 50.6699L89.2198 121.17H119.15C117.25 126.4 115.7 131.17 113.72 135.69C113.31 136.69 111.28 137.33 109.97 137.37C103.67 137.54 97.3598 137.32 91.0598 137.56C90.3615 137.709 89.7028 138.004 89.127 138.427C88.5513 138.849 88.0716 139.389 87.7198 140.01C86.9247 141.716 86.3791 143.528 86.0998 145.39C84.4798 152.6 88.0998 157.27 95.5298 157.32C110.4 157.43 125.28 157.37 140.16 157.37H196.9C202.6 157.37 205.42 159.06 206.26 162.94C207.06 166.61 204.87 169.81 200.1 172.03C199.89 172.12 199.77 172.38 199.61 172.57C207.27 187.49 206.34 197.57 196.61 205.22C188.69 211.43 176.49 210.88 168.76 203.97C160.17 196.22 159.62 185.25 167.43 172.3ZM176.02 187.93C175.977 188.903 176.135 189.874 176.483 190.784C176.831 191.694 177.363 192.522 178.044 193.218C178.726 193.914 179.543 194.462 180.446 194.828C181.348 195.195 182.316 195.373 183.29 195.35C184.296 195.352 185.293 195.151 186.221 194.76C187.149 194.369 187.988 193.795 188.69 193.073C189.391 192.351 189.94 191.495 190.305 190.557C190.669 189.618 190.841 188.616 190.81 187.61C190.76 183.5 187.52 180.5 183.19 180.54C178.86 180.58 176 183.45 176.02 187.93ZM108.4 187.93C108.456 186.956 108.309 185.981 107.966 185.068C107.624 184.155 107.094 183.323 106.412 182.626C105.729 181.929 104.908 181.383 104.002 181.022C103.096 180.661 102.125 180.493 101.15 180.53C100.174 180.497 99.2016 180.663 98.2913 181.016C97.381 181.369 96.5515 181.903 95.8528 182.584C95.154 183.266 94.6004 184.083 94.2253 184.984C93.8501 185.886 93.6611 186.854 93.6698 187.83C93.6898 189.808 94.4764 191.701 95.8641 193.111C97.2517 194.521 99.1322 195.338 101.11 195.39C102.082 195.393 103.046 195.201 103.943 194.825C104.84 194.449 105.652 193.897 106.332 193.201C107.012 192.505 107.545 191.68 107.9 190.775C108.255 189.87 108.425 188.902 108.4 187.93Z" fill="#0D6EFD"/>
<path d="M138.8 91.2302C130.26 91.2302 122.2 91.3102 114.15 91.1502C112.73 91.1502 110.49 90.4302 110.15 89.4802C109.74 88.3702 110.63 86.3802 111.54 85.2302C128.926 63.3102 146.363 41.4302 163.85 19.5902C164.85 18.3102 165.74 16.7702 167.04 15.8902C168.34 15.0102 170.25 14.3802 171.21 14.8902C172.17 15.4002 172.78 17.7202 172.43 18.8902C169.61 28.5202 166.48 38.0602 163.54 47.6602C161.54 54.2302 159.66 60.8502 157.54 68.1902H173.08C175.346 68.0699 177.617 68.1 179.88 68.2802C181.33 68.4802 183.2 69.0902 183.88 70.1502C184.37 70.9002 183.53 72.9902 182.72 74.0402C177.5 80.8302 172.13 87.5102 166.8 94.2202L132.95 136.84C132.71 137.13 132.5 137.45 132.25 137.74C130.84 139.33 129.25 141.74 127.09 139.97C126.01 139.09 125.91 136.08 126.4 134.34C130.26 120.82 134.4 107.34 138.4 93.8902C138.581 93.0114 138.714 92.1234 138.8 91.2302Z" fill="#0D6EFD"/>
<path d="M218.78 49.6402H174.39C176.23 44.7302 177.7 40.4202 179.52 36.2602C179.86 35.4902 181.59 34.9502 182.68 34.9402C195.54 34.8602 208.4 34.7902 221.26 34.9402C230.74 35.0602 237.26 43.9402 234.92 53.4302C229.62 75.2502 224.266 97.0635 218.86 118.87C217.649 124.204 214.639 128.958 210.336 132.332C206.032 135.707 200.698 137.497 195.23 137.4C181.11 137.48 166.986 137.48 152.86 137.4C151.49 137.4 150.13 136.6 148.77 136.17C149.33 134.86 149.77 133.5 150.48 132.25C155.32 123.25 162.48 119.53 172.95 121.02C179.74 122.02 186.79 121.22 193.73 121.2C198.73 121.2 202.5 118.49 203.73 113.67C208.803 93.3435 213.803 73.0102 218.73 52.6702C218.854 51.6649 218.871 50.6491 218.78 49.6402Z" fill="#0D6EFD"/>
<path d="M724.139 142.255C717.648 142.255 712.632 140.595 709.092 137.276C705.551 133.883 703.781 128.904 703.781 122.339V69.3428H717.611V122.007C717.611 124.81 718.312 126.986 719.713 128.535C721.189 130.084 723.217 130.859 725.799 130.859C728.897 130.859 731.478 130.047 733.543 128.425L737.416 138.271C735.793 139.599 733.802 140.595 731.441 141.259C729.081 141.923 726.647 142.255 724.139 142.255ZM694.045 93.9049V82.8409H733.433V93.9049H694.045Z" fill="#0D6EFD"/>
<path d="M653.818 141.48V82.3982H666.985V98.6623L665.436 93.9048C667.206 89.9217 669.972 86.8976 673.734 84.8323C677.569 82.767 682.327 81.7344 688.006 81.7344V94.9005C687.416 94.753 686.863 94.6793 686.347 94.6793C685.83 94.6055 685.314 94.5686 684.798 94.5686C679.561 94.5686 675.393 96.1176 672.295 99.2155C669.197 102.24 667.648 106.776 667.648 112.824V141.48H653.818Z" fill="#0D6EFD"/>
<path d="M623.015 141.48V129.531L622.241 126.986V106.075C622.241 102.018 621.024 98.8836 618.589 96.6708C616.155 94.3842 612.467 93.2409 607.525 93.2409C604.206 93.2409 600.924 93.7573 597.678 94.7899C594.507 95.8225 591.815 97.2609 589.602 99.1049L584.18 89.0366C587.352 86.6025 591.114 84.7954 595.466 83.6153C599.891 82.3613 604.464 81.7344 609.185 81.7344C617.741 81.7344 624.343 83.7997 628.99 87.9302C633.71 91.987 636.071 98.2935 636.071 106.85V141.48H623.015ZM604.428 142.254C600.002 142.254 596.13 141.517 592.81 140.042C589.491 138.493 586.91 136.391 585.066 133.735C583.295 131.006 582.41 127.945 582.41 124.552C582.41 121.233 583.185 118.246 584.734 115.59C586.356 112.935 588.975 110.833 592.589 109.284C596.203 107.735 600.998 106.96 606.972 106.96H624.121V116.143H607.968C603.247 116.143 600.076 116.918 598.453 118.467C596.83 119.942 596.019 121.786 596.019 123.999C596.019 126.507 597.015 128.498 599.006 129.973C600.998 131.449 603.764 132.186 607.304 132.186C610.697 132.186 613.721 131.412 616.377 129.863C619.106 128.314 621.06 126.027 622.241 123.003L624.564 131.301C623.236 134.768 620.839 137.46 617.372 139.378C613.979 141.296 609.664 142.254 604.428 142.254Z" fill="#0D6EFD"/>
<path d="M543.942 142.587C538.041 142.587 532.546 141.628 527.457 139.71C522.441 137.718 518.052 134.952 514.29 131.412C510.602 127.798 507.726 123.557 505.66 118.688C503.595 113.82 502.562 108.509 502.562 102.756C502.562 97.0029 503.595 91.6922 505.66 86.824C507.726 81.9559 510.639 77.7515 514.401 74.2111C518.163 70.5968 522.551 67.8308 527.567 65.9131C532.583 63.9215 538.078 62.9258 544.052 62.9258C550.396 62.9258 556.186 64.0322 561.423 66.245C566.66 68.384 571.086 71.5926 574.7 75.8707L565.406 84.6112C562.603 81.5871 559.468 79.3374 556.002 77.8622C552.535 76.3132 548.773 75.5387 544.716 75.5387C540.66 75.5387 536.935 76.2026 533.542 77.5303C530.222 78.8579 527.309 80.7388 524.801 83.1729C522.367 85.607 520.449 88.4836 519.048 91.8028C517.72 95.122 517.056 98.7731 517.056 102.756C517.056 106.739 517.72 110.39 519.048 113.71C520.449 117.029 522.367 119.905 524.801 122.339C527.309 124.774 530.222 126.654 533.542 127.982C536.935 129.31 540.66 129.974 544.716 129.974C548.773 129.974 552.535 129.236 556.002 127.761C559.468 126.212 562.603 123.888 565.406 120.791L574.7 129.642C571.086 133.846 566.66 137.055 561.423 139.267C556.186 141.48 550.359 142.587 543.942 142.587Z" fill="#0D6EFD"/>
<path d="M482.114 142.255C475.623 142.255 470.607 140.595 467.067 137.276C463.526 133.883 461.756 128.904 461.756 122.339V69.3428H475.586V122.007C475.586 124.81 476.287 126.986 477.688 128.535C479.163 130.084 481.192 130.859 483.773 130.859C486.871 130.859 489.453 130.047 491.518 128.425L495.39 138.271C493.768 139.599 491.776 140.595 489.416 141.259C487.056 141.923 484.621 142.255 482.114 142.255ZM452.02 93.9049V82.8409H491.407V93.9049H452.02Z" fill="#0D6EFD"/>
<path d="M424.977 141.48V59.3853H438.807V141.48H424.977Z" fill="#0D6EFD"/>
<path d="M380.219 142.254C374.17 142.254 368.786 140.964 364.065 138.382C359.345 135.727 355.62 132.112 352.891 127.539C350.161 122.966 348.797 117.766 348.797 111.939C348.797 106.038 350.161 100.838 352.891 96.3389C355.62 91.7657 359.345 88.1884 364.065 85.6068C368.786 83.0252 374.17 81.7344 380.219 81.7344C386.341 81.7344 391.762 83.0252 396.483 85.6068C401.277 88.1884 405.002 91.7289 407.657 96.2282C410.386 100.728 411.751 105.965 411.751 111.939C411.751 117.766 410.386 122.966 407.657 127.539C405.002 132.112 401.277 135.727 396.483 138.382C391.762 140.964 386.341 142.254 380.219 142.254ZM380.219 130.416C383.612 130.416 386.636 129.678 389.291 128.203C391.946 126.728 394.012 124.589 395.487 121.786C397.036 118.983 397.81 115.701 397.81 111.939C397.81 108.104 397.036 104.821 395.487 102.092C394.012 99.2893 391.946 97.1502 389.291 95.675C386.636 94.1998 383.648 93.4622 380.329 93.4622C376.936 93.4622 373.912 94.1998 371.257 95.675C368.675 97.1502 366.61 99.2893 365.061 102.092C363.512 104.821 362.738 108.104 362.738 111.939C362.738 115.701 363.512 118.983 365.061 121.786C366.61 124.589 368.675 126.728 371.257 128.203C373.912 129.678 376.899 130.416 380.219 130.416Z" fill="#0D6EFD"/>
<path d="M303.342 141.48L269.486 64.0322H285.087L315.291 134.067H306.329L336.866 64.0322H351.249L317.504 141.48H303.342Z" fill="#0D6EFD"/>
</g>
<defs>
<clipPath id="clip0_293_1036">
<rect width="735.93" height="209.5" fill="white"/>
</clipPath>
</defs>
</svg>
