<svg id="Layer_1" data-name="Layer 1" xmlns="http://www.w3.org/2000/svg" viewBox="0 0 735.93 209.5"><defs><style>.cls-1,.cls-2{fill:#0d6efd;}.cls-2{font-size:110.64px;font-family:Montserrat-SemiBold, Montserrat;font-weight:600;}.cls-3{letter-spacing:-0.05em;}.cls-4{letter-spacing:0em;}.cls-5{letter-spacing:0em;}.cls-6{letter-spacing:0.01em;}</style></defs><path class="cls-1" d="M365.32,621.31H315c5,6.46,7.25,13.24,5.25,21a21.17,21.17,0,0,1-7.94,12.06c-8.25,6.14-20.83,5.28-28.19-1.82-8.65-8.33-8.82-19.07-.35-31.51a28.27,28.27,0,0,1-12.91-12.12c-3.07-5.68-4.35-11.8-1.87-17.79,3.77-9.14,2.67-17.87.32-27.1-7.6-29.81-14.68-59.74-22-89.62-1.44-5.91-5.32-9-11.29-9-9.84,0-19.67,0-29.51-.05-4.15,0-7.42-2.43-8.34-5.82a8.13,8.13,0,0,1,3.55-9.21,9.74,9.74,0,0,1,4.61-1.14c10.21-.09,20.45.33,30.64-.14,12.64-.57,23.07,9,25.77,20.2.92,3.79,2.13,7.51,2.79,11.34.46,2.71,1.66,3.42,4.28,3.41,20-.1,40.09-.07,60.14-.06,1.44,0,2.88.17,5.49.33-2.53,3.23-4.61,5.5-6.24,8.05-3.73,5.85-8.59,7.81-15.72,7.41-13.2-.75-26.46-.23-39.7-.23-1.1,0-2.19.1-3.67.18l17,70.5h29.93c-1.9,5.23-3.45,10-5.43,14.52-.41,1-2.44,1.64-3.75,1.68-6.3.17-12.61-.05-18.91.19a5.05,5.05,0,0,0-3.34,2.45,19.64,19.64,0,0,0-1.62,5.38c-1.62,7.21,2,11.88,9.43,11.93,14.87.11,29.75.05,44.63.05l56.74,0c5.7,0,8.52,1.69,9.36,5.57.8,3.67-1.39,6.87-6.16,9.09-.21.09-.33.35-.49.54,7.66,14.92,6.73,25-3,32.65-7.92,6.21-20.12,5.66-27.85-1.25C358.06,645.23,357.51,634.26,365.32,621.31Zm8.59,15.63a7.11,7.11,0,0,0,7.27,7.42,7.51,7.51,0,0,0,7.52-7.74c-.05-4.11-3.29-7.11-7.62-7.07S373.89,632.46,373.91,636.94Zm-67.62,0a7,7,0,0,0-7.25-7.4,7.24,7.24,0,0,0-7.48,7.3A7.64,7.64,0,0,0,299,644.4,7.27,7.27,0,0,0,306.29,636.94Z" transform="translate(-197.89 -449.01)"/><path class="cls-1" d="M336.69,540.24c-8.54,0-16.6.08-24.65-.08-1.42,0-3.66-.72-4-1.67-.41-1.11.48-3.1,1.39-4.25q26.08-32.88,52.31-65.64c1-1.28,1.89-2.82,3.19-3.7s3.21-1.51,4.17-1,1.57,2.83,1.22,4c-2.82,9.63-5.95,19.17-8.89,28.77-2,6.57-3.88,13.19-6,20.53h15.54a51.36,51.36,0,0,1,6.8.09c1.45.2,3.32.81,4,1.87.49.75-.35,2.84-1.16,3.89-5.22,6.79-10.59,13.47-15.92,20.18l-33.85,42.62c-.24.29-.45.61-.7.9-1.41,1.59-3,4-5.16,2.23-1.08-.88-1.18-3.89-.69-5.63,3.86-13.52,8-27,12-40.45A24.93,24.93,0,0,0,336.69,540.24Z" transform="translate(-197.89 -449.01)"/><path class="cls-1" d="M416.67,498.65H372.28c1.84-4.91,3.31-9.22,5.13-13.38.34-.77,2.07-1.31,3.16-1.32,12.86-.08,25.72-.15,38.58,0,9.48.12,16,9,13.66,18.49q-7.95,32.73-16.06,65.44a23.8,23.8,0,0,1-23.63,18.53q-21.18.12-42.37,0c-1.37,0-2.73-.8-4.09-1.23.56-1.31,1-2.67,1.71-3.92,4.84-9,12-12.72,22.47-11.23,6.79,1,13.84.2,20.78.18,5,0,8.77-2.71,10-7.53q7.61-30.49,15-61A14.23,14.23,0,0,0,416.67,498.65Z" transform="translate(-197.89 -449.01)"/><text class="cls-2" transform="translate(270.04 145.12)"><tspan class="cls-3">V</tspan><tspan class="cls-4" x="74.57" y="0">olt</tspan><tspan class="cls-5" x="224.82" y="0">C</tspan><tspan x="303.7" y="0">a</tspan><tspan class="cls-6" x="370.86" y="0">r</tspan><tspan x="418.99" y="0">t</tspan></text></svg>