<svg width="512" height="512" viewBox="0 0 512 512" fill="none" xmlns="http://www.w3.org/2000/svg">
<rect width="512" height="512" rx="256" fill="#F4F4F4"/>
<mask id="mask0_5_2607" style="mask-type:luminance" maskUnits="userSpaceOnUse" x="91" y="108" width="320" height="320">
<path d="M411 108H91V428H411V108Z" fill="white"/>
</mask>
<g mask="url(#mask0_5_2607)">
<path d="M201 368C207.941 368 214.667 370.407 220.032 374.81C225.397 379.213 229.069 385.341 230.423 392.148C231.777 398.955 230.729 406.021 227.457 412.142C224.185 418.263 218.892 423.061 212.48 425.717C206.068 428.373 198.933 428.723 192.291 426.708C185.649 424.694 179.912 420.438 176.056 414.667C172.2 408.896 170.464 401.967 171.144 395.06C171.825 388.152 174.879 381.695 179.787 376.787C182.572 374.001 185.879 371.79 189.519 370.283C193.159 368.775 197.06 368 201 368ZM361 368C367.941 368 374.667 370.407 380.032 374.81C385.397 379.213 389.069 385.341 390.423 392.148C391.777 398.955 390.729 406.021 387.457 412.142C384.185 418.263 378.892 423.061 372.48 425.717C366.068 428.373 358.933 428.723 352.291 426.708C345.649 424.694 339.912 420.438 336.056 414.667C332.2 408.896 330.464 401.967 331.144 395.06C331.825 388.152 334.879 381.695 339.787 376.787C342.572 374.001 345.879 371.79 349.519 370.283C353.159 368.775 357.06 368 361 368ZM201 386C198.224 385.998 195.532 386.958 193.385 388.718C191.237 390.477 189.766 392.927 189.222 395.65C188.678 398.372 189.095 401.199 190.402 403.649C191.709 406.098 193.825 408.019 196.389 409.083C198.953 410.148 201.807 410.29 204.465 409.486C207.122 408.682 209.418 406.981 210.962 404.674C212.507 402.367 213.203 399.595 212.932 396.832C212.662 394.069 211.442 391.485 209.48 389.52C207.232 387.269 204.182 386.003 201 386ZM361 386C358.224 386.001 355.534 386.964 353.389 388.725C351.243 390.486 349.775 392.937 349.233 395.659C348.692 398.382 349.111 401.208 350.419 403.656C351.727 406.104 353.844 408.023 356.408 409.086C358.973 410.149 361.826 410.29 364.483 409.485C367.139 408.68 369.435 406.979 370.978 404.671C372.521 402.364 373.216 399.593 372.946 396.83C372.675 394.068 371.455 391.484 369.493 389.52C368.378 388.404 367.055 387.519 365.597 386.915C364.14 386.311 362.578 386 361 386ZM141 108C142.748 107.987 144.469 108.433 145.99 109.294C147.511 110.156 148.779 111.401 149.667 112.907L150.427 114.507L163 148H264.013L249.347 168H171L211 268H249.267L234.853 288H211C209.955 288.002 208.912 287.922 207.88 287.76L191.8 328H381C383.499 327.996 385.909 328.927 387.756 330.61C389.602 332.294 390.752 334.608 390.977 337.097C391.203 339.585 390.489 342.068 388.976 344.057C387.462 346.045 385.259 347.395 382.8 347.84L381 348H191.787C188.732 348.003 185.718 347.307 182.974 345.964C180.231 344.621 177.831 342.668 175.96 340.254C174.089 337.84 172.795 335.031 172.178 332.04C171.561 329.049 171.637 325.957 172.4 323L173.2 320.587L190.267 277.92L134.04 128H101C98.6602 127.998 96.3949 127.177 94.5974 125.679C92.7999 124.182 91.5837 122.101 91.16 119.8L91 118C91.0018 115.66 91.823 113.395 93.3209 111.598C94.8188 109.8 96.8989 108.584 99.2 108.16L101 108H141ZM391 148C394.073 148.002 397.104 148.711 399.858 150.073C402.612 151.435 405.015 153.413 406.881 155.854C408.747 158.296 410.026 161.134 410.618 164.149C411.209 167.164 411.098 170.275 410.293 173.24L409.56 175.44L369.56 275.44C368.225 278.763 366.023 281.667 363.182 283.849C360.342 286.03 356.968 287.408 353.413 287.84L351 288H284.787L299.187 268H351L391 168H306.533L321.2 148H391Z" fill="#0D6EFD"/>
<path d="M277.667 205.64L307 121.333L219 223.693H277.667L248.333 308L336.333 205.64" fill="#0D6EFD"/>
</g>
</svg>
