<svg width="320" height="320" viewBox="0 0 320 320" fill="none" xmlns="http://www.w3.org/2000/svg">
<mask id="mask0_13_1024" style="mask-type:luminance" maskUnits="userSpaceOnUse" x="0" y="0" width="320" height="320">
<path d="M320 0H0V320H320V0Z" fill="white"/>
</mask>
<g mask="url(#mask0_13_1024)">
<path d="M110 260C116.941 260 123.667 262.407 129.032 266.81C134.397 271.213 138.069 277.341 139.423 284.148C140.777 290.955 139.729 298.021 136.457 304.142C133.185 310.263 127.892 315.061 121.48 317.717C115.068 320.373 107.933 320.723 101.291 318.708C94.6492 316.694 88.9115 312.438 85.0555 306.667C81.1995 300.896 79.4639 293.967 80.1442 287.06C80.8246 280.152 83.8788 273.695 88.7867 268.787C91.572 266.001 94.8791 263.79 98.519 262.283C102.159 260.775 106.06 260 110 260ZM270 260C276.941 260 283.667 262.407 289.032 266.81C294.397 271.213 298.069 277.341 299.423 284.148C300.777 290.955 299.729 298.021 296.457 304.142C293.185 310.263 287.892 315.061 281.48 317.717C275.068 320.373 267.933 320.723 261.291 318.708C254.649 316.694 248.912 312.438 245.056 306.667C241.2 300.896 239.464 293.967 240.144 287.06C240.825 280.152 243.879 273.695 248.787 268.787C251.572 266.001 254.879 263.79 258.519 262.283C262.159 260.775 266.06 260 270 260ZM110 278C107.224 277.998 104.532 278.958 102.385 280.718C100.237 282.477 98.7658 284.927 98.2219 287.65C97.678 290.372 98.0951 293.199 99.4019 295.649C100.709 298.098 102.825 300.019 105.389 301.083C107.953 302.148 110.807 302.29 113.465 301.486C116.122 300.682 118.418 298.981 119.962 296.674C121.507 294.367 122.203 291.595 121.932 288.832C121.662 286.069 120.442 283.485 118.48 281.52C116.232 279.269 113.182 278.003 110 278ZM270 278C267.224 278.001 264.534 278.964 262.389 280.725C260.243 282.486 258.775 284.937 258.233 287.659C257.692 290.382 258.111 293.208 259.419 295.656C260.727 298.104 262.844 300.023 265.408 301.086C267.973 302.149 270.826 302.29 273.483 301.485C276.139 300.68 278.435 298.979 279.978 296.671C281.521 294.364 282.216 291.593 281.946 288.83C281.675 286.068 280.455 283.484 278.493 281.52C277.378 280.404 276.055 279.519 274.597 278.915C273.14 278.311 271.578 278 270 278ZM50 0.000289809C51.7479 -0.0130335 53.4686 0.433244 54.9896 1.2944C56.5107 2.15556 57.7787 3.40136 58.6667 4.90696L59.4267 6.50696L72 40.0003H173.013L158.347 60.0003H80L120 160H158.267L143.853 180H120C118.955 180.002 117.912 179.922 116.88 179.76L100.8 220H290C292.499 219.996 294.909 220.927 296.756 222.61C298.602 224.294 299.752 226.608 299.977 229.097C300.203 231.585 299.489 234.068 297.976 236.057C296.462 238.045 294.259 239.395 291.8 239.84L290 240H100.787C97.7322 240.003 94.7177 239.307 91.9742 237.964C89.2308 236.621 86.8314 234.668 84.96 232.254C83.0888 229.84 81.7951 227.031 81.178 224.04C80.5609 221.049 80.6369 217.957 81.4 215L82.2 212.587L99.2667 169.92L43.04 20.0003H10C7.66019 19.9985 5.39489 19.1773 3.5974 17.6794C1.7999 16.1815 0.58372 14.1014 0.16 11.8003L0 10.0003C0.00181684 7.66048 0.822963 5.39518 2.32087 3.59769C3.81879 1.80019 5.89887 0.58401 8.2 0.16029L10 0.000289809H50ZM300 40.0003C303.073 40.0015 306.104 40.7107 308.858 42.0728C311.612 43.4349 314.015 45.4133 315.881 47.8544C317.747 50.2955 319.026 53.1338 319.618 56.1489C320.209 59.1641 320.098 62.275 319.293 65.2403L318.56 67.4403L278.56 167.44C277.225 170.763 275.023 173.667 272.182 175.849C269.342 178.03 265.968 179.408 262.413 179.84L260 180H193.787L208.187 160H260L300 60.0003H215.533L230.2 40.0003H300Z" fill="#0D6EFD"/>
<path d="M186.667 97.6402L216 13.3335L128 115.693H186.667L157.333 200L245.333 97.6402" fill="#0D6EFD"/>
</g>
</svg>
